<?xml version="1.0" encoding="UTF-8"?>
<svg xmlns="http://www.w3.org/2000/svg" xmlns:xlink="http://www.w3.org/1999/xlink" width="63px" height="20px" viewBox="0 0 62 20" version="1.1">
<g id="surface1">
<path style=" stroke:none;fill-rule:nonzero;fill:rgb(0%,0%,0%);fill-opacity:1;" d="M 0.730469 0 L 61.269531 0 L 61.269531 20 L 0.730469 20 Z M 0.730469 0 "/>
<path style=" stroke:none;fill-rule:nonzero;fill:rgb(67.058824%,98.431373%,26.27451%);fill-opacity:1;" d="M 7.375 0.890625 C 7.753906 0.0664062 8.902344 0.0664062 9.28125 0.890625 L 10.050781 2.5625 C 10.261719 3.027344 10.761719 3.273438 11.246094 3.152344 L 13.023438 2.714844 C 13.902344 2.496094 14.621094 3.441406 14.207031 4.261719 L 13.429688 5.804688 C 13.191406 6.273438 13.320312 6.851562 13.734375 7.167969 L 15.097656 8.21875 C 15.828125 8.777344 15.570312 9.957031 14.679688 10.140625 L 12.945312 10.503906 C 12.449219 10.609375 12.09375 11.0625 12.105469 11.582031 L 12.136719 13.363281 C 12.152344 14.28125 11.121094 14.800781 10.421875 14.222656 L 8.988281 13.039062 C 8.601562 12.71875 8.050781 12.71875 7.667969 13.039062 L 6.230469 14.222656 C 5.535156 14.800781 4.5 14.28125 4.519531 13.363281 L 4.550781 11.582031 C 4.5625 11.0625 4.207031 10.609375 3.710938 10.503906 L 1.976562 10.140625 C 1.085938 9.957031 0.828125 8.777344 1.558594 8.21875 L 2.921875 7.167969 C 3.335938 6.851562 3.464844 6.273438 3.226562 5.804688 L 2.449219 4.261719 C 2.035156 3.441406 2.753906 2.496094 3.632812 2.714844 L 5.40625 3.152344 C 5.890625 3.273438 6.394531 3.027344 6.609375 2.5625 Z M 7.375 0.890625 "/>
<path style=" stroke:none;fill-rule:nonzero;fill:rgb(100%,100%,100%);fill-opacity:1;" d="M 20.148438 15.675781 L 20.148438 2.308594 L 22.507812 2.308594 L 22.507812 13.644531 L 28.238281 13.644531 L 28.238281 15.675781 Z M 34.441406 15.871094 C 33.492188 15.871094 32.664062 15.65625 31.964844 15.226562 C 31.265625 14.792969 30.722656 14.191406 30.335938 13.417969 C 29.953125 12.640625 29.761719 11.738281 29.761719 10.703125 C 29.761719 9.667969 29.953125 8.757812 30.335938 7.980469 C 30.722656 7.203125 31.265625 6.597656 31.964844 6.167969 C 32.664062 5.734375 33.492188 5.519531 34.441406 5.519531 C 35.394531 5.519531 36.222656 5.734375 36.921875 6.167969 C 37.621094 6.597656 38.160156 7.203125 38.542969 7.980469 C 38.929688 8.757812 39.121094 9.667969 39.121094 10.703125 C 39.121094 11.738281 38.929688 12.640625 38.542969 13.417969 C 38.160156 14.191406 37.621094 14.792969 36.921875 15.226562 C 36.222656 15.65625 35.394531 15.871094 34.441406 15.871094 Z M 34.457031 13.980469 C 34.972656 13.980469 35.40625 13.832031 35.753906 13.542969 C 36.101562 13.246094 36.359375 12.851562 36.527344 12.351562 C 36.703125 11.859375 36.785156 11.304688 36.785156 10.699219 C 36.785156 10.082031 36.703125 9.527344 36.527344 9.03125 C 36.359375 8.53125 36.101562 8.132812 35.753906 7.839844 C 35.40625 7.539062 34.972656 7.394531 34.457031 7.394531 C 33.925781 7.394531 33.484375 7.539062 33.132812 7.839844 C 32.785156 8.132812 32.523438 8.53125 32.351562 9.03125 C 32.183594 9.527344 32.097656 10.082031 32.097656 10.699219 C 32.097656 11.304688 32.183594 11.859375 32.351562 12.351562 C 32.523438 12.851562 32.785156 13.246094 33.132812 13.542969 C 33.484375 13.832031 33.925781 13.980469 34.457031 13.980469 Z M 45.320312 19.644531 C 44.492188 19.644531 43.785156 19.527344 43.1875 19.296875 C 42.597656 19.070312 42.121094 18.765625 41.761719 18.386719 C 41.398438 18 41.148438 17.578125 41.007812 17.113281 L 43.082031 16.597656 C 43.175781 16.792969 43.3125 16.984375 43.488281 17.175781 C 43.667969 17.371094 43.90625 17.535156 44.207031 17.660156 C 44.511719 17.789062 44.894531 17.855469 45.359375 17.855469 C 46.011719 17.855469 46.550781 17.691406 46.980469 17.367188 C 47.40625 17.042969 47.621094 16.511719 47.621094 15.773438 L 47.621094 13.875 L 47.503906 13.875 C 47.390625 14.117188 47.214844 14.371094 46.984375 14.625 C 46.757812 14.882812 46.464844 15.097656 46.089844 15.273438 C 45.71875 15.445312 45.253906 15.53125 44.695312 15.53125 C 43.945312 15.53125 43.265625 15.351562 42.65625 14.992188 C 42.050781 14.625 41.566406 14.078125 41.207031 13.359375 C 40.851562 12.632812 40.671875 11.722656 40.671875 10.628906 C 40.671875 9.53125 40.851562 8.601562 41.207031 7.84375 C 41.566406 7.082031 42.050781 6.503906 42.660156 6.113281 C 43.273438 5.71875 43.953125 5.519531 44.703125 5.519531 C 45.273438 5.519531 45.746094 5.621094 46.117188 5.820312 C 46.488281 6.015625 46.785156 6.253906 47.003906 6.535156 C 47.222656 6.804688 47.390625 7.066406 47.503906 7.308594 L 47.632812 7.308594 L 47.632812 5.652344 L 49.902344 5.652344 L 49.902344 15.839844 C 49.902344 16.695312 49.703125 17.40625 49.304688 17.964844 C 48.90625 18.527344 48.363281 18.945312 47.671875 19.226562 C 46.980469 19.503906 46.199219 19.644531 45.320312 19.644531 Z M 45.335938 13.675781 C 45.828125 13.675781 46.242188 13.554688 46.585938 13.3125 C 46.925781 13.070312 47.191406 12.71875 47.367188 12.261719 C 47.546875 11.804688 47.632812 11.257812 47.632812 10.617188 C 47.632812 9.984375 47.546875 9.433594 47.367188 8.960938 C 47.191406 8.488281 46.933594 8.121094 46.589844 7.855469 C 46.253906 7.59375 45.832031 7.460938 45.335938 7.460938 C 44.828125 7.460938 44.398438 7.59375 44.054688 7.871094 C 43.710938 8.144531 43.453125 8.519531 43.28125 9 C 43.105469 9.472656 43.019531 10.011719 43.019531 10.617188 C 43.019531 11.230469 43.105469 11.769531 43.28125 12.230469 C 43.457031 12.683594 43.71875 13.042969 44.0625 13.296875 C 44.410156 13.554688 44.835938 13.675781 45.335938 13.675781 Z M 56.519531 15.871094 C 55.566406 15.871094 54.738281 15.65625 54.039062 15.226562 C 53.339844 14.792969 52.800781 14.191406 52.414062 13.417969 C 52.035156 12.640625 51.84375 11.738281 51.84375 10.703125 C 51.84375 9.667969 52.035156 8.757812 52.414062 7.980469 C 52.800781 7.203125 53.339844 6.597656 54.039062 6.167969 C 54.738281 5.734375 55.566406 5.519531 56.519531 5.519531 C 57.472656 5.519531 58.296875 5.734375 59 6.167969 C 59.699219 6.597656 60.234375 7.203125 60.617188 7.980469 C 61.003906 8.757812 61.195312 9.667969 61.195312 10.703125 C 61.195312 11.738281 61.003906 12.640625 60.617188 13.417969 C 60.234375 14.191406 59.699219 14.792969 59 15.226562 C 58.296875 15.65625 57.472656 15.871094 56.519531 15.871094 Z M 56.53125 13.980469 C 57.046875 13.980469 57.480469 13.832031 57.828125 13.542969 C 58.175781 13.246094 58.4375 12.851562 58.605469 12.351562 C 58.777344 11.859375 58.867188 11.304688 58.867188 10.699219 C 58.867188 10.082031 58.777344 9.527344 58.605469 9.03125 C 58.4375 8.53125 58.175781 8.132812 57.828125 7.839844 C 57.480469 7.539062 57.046875 7.394531 56.53125 7.394531 C 56.003906 7.394531 55.5625 7.539062 55.210938 7.839844 C 54.863281 8.132812 54.601562 8.53125 54.429688 9.03125 C 54.257812 9.527344 54.171875 10.082031 54.171875 10.699219 C 54.171875 11.304688 54.257812 11.859375 54.429688 12.351562 C 54.601562 12.851562 54.863281 13.246094 55.210938 13.542969 C 55.5625 13.832031 56.003906 13.980469 56.53125 13.980469 Z M 56.53125 13.980469 "/>
</g>
</svg>
